	<!-- prettier-ignore -->
<svg width="6" height="9" viewBox="0 0 6 9" fill="none" xmlns="http://www.w3.org/2000/svg">
<path d="M5.64795 4.89797L1.89795 8.64797C1.79228 8.75364 1.64895 8.81301 1.49951 8.81301C1.35007 8.81301 1.20675 8.75364 1.10107 8.64797C0.995401 8.5423 0.936035 8.39897 0.936035 8.24953C0.936035 8.10009 0.995401 7.95676 1.10107 7.85109L4.4531 4.5L1.10201 1.14797C1.04969 1.09564 1.00818 1.03353 0.979865 0.965163C0.951547 0.896799 0.936972 0.823527 0.936972 0.74953C0.936972 0.675533 0.951547 0.602261 0.979865 0.533897C1.00818 0.465533 1.04969 0.403416 1.10201 0.351093C1.15433 0.298769 1.21645 0.257264 1.28482 0.228946C1.35318 0.200629 1.42645 0.186054 1.50045 0.186054C1.57445 0.186054 1.64772 0.200629 1.71608 0.228946C1.78445 0.257264 1.84656 0.298769 1.89889 0.351093L5.64889 4.10109C5.70126 4.15341 5.7428 4.21556 5.77111 4.28396C5.79942 4.35237 5.81395 4.42569 5.81386 4.49972C5.81377 4.57376 5.79907 4.64705 5.7706 4.71538C5.74213 4.78372 5.70045 4.84577 5.64795 4.89797Z" fill="white" fill-opacity="0.8"/>
</svg>
