<svg width="79" height="79" viewBox="0 0 79 79" fill="none" xmlns="http://www.w3.org/2000/svg">
<path d="M24.1328 39.7503C27.3485 46.3909 32.7183 51.7469 39.3672 54.9456C39.8576 55.1778 40.4001 55.2783 40.9412 55.2372C41.4823 55.1961 42.0034 55.0148 42.4531 54.7112L52.2188 48.1878C52.6502 47.8951 53.1488 47.7166 53.6679 47.6687C54.1871 47.6209 54.7099 47.7054 55.1875 47.9143L73.4688 55.7659C74.0936 56.0259 74.6156 56.4842 74.9544 57.07C75.2932 57.6558 75.43 58.3368 75.3438 59.0081C74.7643 63.5305 72.5569 67.6868 69.1346 70.6994C65.7122 73.7119 61.3094 75.3742 56.75 75.3753C42.6604 75.3753 29.1478 69.7782 19.185 59.8153C9.22208 49.8524 3.625 36.3399 3.625 22.2503C3.62603 17.6909 5.28834 13.2881 8.30088 9.8657C11.3134 6.44334 15.4698 4.23592 19.9922 3.6565C20.6634 3.57028 21.3444 3.7071 21.9303 4.0459C22.5161 4.38471 22.9743 4.9067 23.2344 5.5315L31.0859 23.8518C31.2901 24.3219 31.3755 24.835 31.3347 25.3459C31.2938 25.8568 31.1279 26.3498 30.8516 26.7815L24.3281 36.7034C24.0377 37.1521 23.8672 37.6679 23.833 38.2013C23.7989 38.7348 23.9021 39.2681 24.1328 39.7503V39.7503Z" stroke="white" stroke-width="6" stroke-linecap="round" stroke-linejoin="round"/>
</svg>
