<svg width="65" height="60" viewBox="0 0 65 60" fill="none" xmlns="http://www.w3.org/2000/svg">
<path d="M16.6875 48.0937L6.59375 56.5312C6.22953 56.8326 5.78732 57.0246 5.31843 57.0848C4.84953 57.145 4.37317 57.0711 3.9446 56.8715C3.51604 56.672 3.15284 56.355 2.89715 55.9574C2.64145 55.5597 2.50375 55.0977 2.5 54.625V5C2.5 4.33696 2.76339 3.70107 3.23223 3.23223C3.70107 2.76339 4.33696 2.5 5 2.5H60C60.663 2.5 61.2989 2.76339 61.7678 3.23223C62.2366 3.70107 62.5 4.33696 62.5 5V45C62.5 45.663 62.2366 46.2989 61.7678 46.7678C61.2989 47.2366 60.663 47.5 60 47.5H18.2812C17.6959 47.5001 17.1302 47.7109 16.6875 48.0937V48.0937Z" stroke="white" stroke-width="5" stroke-linecap="round" stroke-linejoin="round"/>
<path d="M32.5 28.75C34.5711 28.75 36.25 27.0711 36.25 25C36.25 22.9289 34.5711 21.25 32.5 21.25C30.4289 21.25 28.75 22.9289 28.75 25C28.75 27.0711 30.4289 28.75 32.5 28.75Z" fill="white"/>
<path d="M17.5 28.75C19.5711 28.75 21.25 27.0711 21.25 25C21.25 22.9289 19.5711 21.25 17.5 21.25C15.4289 21.25 13.75 22.9289 13.75 25C13.75 27.0711 15.4289 28.75 17.5 28.75Z" fill="white"/>
<path d="M47.5 28.75C49.5711 28.75 51.25 27.0711 51.25 25C51.25 22.9289 49.5711 21.25 47.5 21.25C45.4289 21.25 43.75 22.9289 43.75 25C43.75 27.0711 45.4289 28.75 47.5 28.75Z" fill="white"/>
</svg>
