<svg id="Layer_1" data-name="Layer 1" xmlns="http://www.w3.org/2000/svg" viewBox="0 0 15.84 15.84"><defs><style>.cls-1{fill:#fff;}</style></defs><title>mobile-navbar-catalog-4</title><path class="cls-1" d="M7.86,15.19A.53.53,0,0,1,7.44,15,2.09,2.09,0,0,0,5.56,14H5.32a13.36,13.36,0,0,0-1.91.32l-.18,0a10.84,10.84,0,0,1-2.18.32h0c-.38,0-.56-.18-.56-.53V3.78c0-.41.14-.56.57-.6l1.28-.12,1.72-.15.2,0c.34,0,.69-.05,1-.05a4.07,4.07,0,0,1,1,.11,2.72,2.72,0,0,1,1.47.84,4.84,4.84,0,0,1,2.74-2.44A9.71,9.71,0,0,1,13.06.8l.27,0a.49.49,0,0,1,.54.51V3.19h.83a.49.49,0,0,1,.55.54V14.14a.51.51,0,0,1-.15.4.54.54,0,0,1-.4.13,10.81,10.81,0,0,1-2-.28l-.7-.14c-.53-.1-1.07-.19-1.6-.24l-.3,0a2.06,2.06,0,0,0-1.39.5,2.8,2.8,0,0,0-.35.41A.63.63,0,0,1,7.86,15.19ZM5.25,3.79c-.33,0-.66,0-1,.06l-.15,0L2.24,4l-.81.08v9.56l.24,0,.72-.13.25,0a21.1,21.1,0,0,1,2.27-.4l.6,0a3.14,3.14,0,0,1,1.82.51l0,0V5.07A1.09,1.09,0,0,0,7,4.31a2,2,0,0,0-1.2-.49A4.71,4.71,0,0,0,5.25,3.79Zm5.09,9.28h.5a15.23,15.23,0,0,1,2,.34l.56.12c.22.05.45.08.68.11l.16,0V4.15h-.41v7.72a.51.51,0,0,1-.53.57h-.53a7,7,0,0,0-2.17.32,4.23,4.23,0,0,0-.69.3Zm2-11.18a10,10,0,0,0-1.23.27A3.85,3.85,0,0,0,8.51,4.49a1.65,1.65,0,0,0-.16.56c0,2.2,0,4.39,0,6.59v1.51l.11-.1A5.7,5.7,0,0,1,9,12.59a5.29,5.29,0,0,1,2.92-1l.75,0,.27,0V1.79Z"/></svg>