<svg id="Layer_1" data-name="Layer 1" xmlns="http://www.w3.org/2000/svg" viewBox="0 0 50.71 52.68"><defs><style>.cls-1{fill:#fff;}</style></defs><title>mobile-navbar-book</title><path class="cls-1" d="M13.72,12.15A1.76,1.76,0,0,1,12,10.63a2.83,2.83,0,0,1,0-.4V7.74c0-1.91,0-3.88,0-5.81A2,2,0,0,1,12.47.46,1.75,1.75,0,0,1,13.73,0a1.81,1.81,0,0,1,1.83,2c0,.92,0,1.86,0,2.77V7.56c0,.85,0,1.72,0,2.58a1.83,1.83,0,0,1-1.66,2Z"/><path class="cls-1" d="M36.92,12.17a1.82,1.82,0,0,1-1.82-1.86c0-2.69,0-5.45,0-8.44A1.93,1.93,0,0,1,35.63.49,1.77,1.77,0,0,1,36.91,0,1.74,1.74,0,0,1,38.7,1.9c0,1,0,1.92,0,2.87V7.29c0,1,0,2,0,3a2,2,0,0,1-.55,1.4,1.79,1.79,0,0,1-1.22.5Z"/><path class="cls-1" d="M6.58,52.68A6.29,6.29,0,0,1,0,46.1V36.55c0-8,0-16.23,0-24.35A6.55,6.55,0,0,1,2,7.46a6.09,6.09,0,0,1,4.14-1.7h.28c.4,0,.81,0,1.24,0s.94,0,1.45,0h.11c.23,0,.35,0,.4.14h0s.08.09.06.42c0,1.18,0,2.35,0,3.48v.75a4.13,4.13,0,1,0,8.25,0v-.21c0-1.34,0-2.73,0-4.09,0-.21,0-.33.09-.4a.59.59,0,0,1,.4-.09H32.22a.63.63,0,0,1,.4.08c.08.08.12.18.12.47,0,1.47,0,3,0,4.3a4.1,4.1,0,1,0,8.2,0V9.5c0-1,0-2,0-3,0-.39.07-.52.13-.58a.61.61,0,0,1,.44-.12h.16c.5,0,1,0,1.41,0s.82,0,1.21,0h.35a6,6,0,0,1,4,1.68,6.37,6.37,0,0,1,2,4.74c0,9.59,0,19,0,28.54,0,.63,0,1.27,0,1.89a32.74,32.74,0,0,1-.13,4.64,6.21,6.21,0,0,1-6.27,5.43H6.58ZM4.66,18.19a.56.56,0,0,0-.41.16c-.3.3-.29,1-.28,1.88v.56l0,24c0,2.88.79,3.67,3.7,3.67H43.16c2.48,0,3.49-1,3.5-3.5,0,0,0-20.14,0-24.16,0-.18,0-.37,0-.56,0-.78,0-1.51-.27-1.84a.53.53,0,0,0-.39-.16H4.66Z"/><path class="cls-1" d="M20.51,45a2.15,2.15,0,0,1-1.17-.57l-5.6-4.49L11,37.75c-.35-.28-.51-.5-.49-.67s.19-.35.58-.58a10.54,10.54,0,0,1,4.32-1.45l.31,0a2.23,2.23,0,0,1,1.45.54c.87.73,1.77,1.45,2.64,2.14s1.56,1.25,2.29,1.85a.92.92,0,0,0,.55.27.85.85,0,0,0,.55-.39l3.44-4.59.25-.33c2-2.63,4-5.35,6-8.06a6.37,6.37,0,0,1,4.45-2.62,9.67,9.67,0,0,1,1.39-.13,3.8,3.8,0,0,1,.75.06c.4.07.52.13.57.18l.07.07-.08.09,0,.11a3.78,3.78,0,0,1-.26.38L30.65,36.84c-1.42,1.89-2.87,3.82-4.28,5.74a4.51,4.51,0,0,1-2.3,1.66,12.9,12.9,0,0,1-3.45.72h-.11Z"/></svg>