<svg width="182" height="121" viewBox="0 0 182 121" fill="none">
<path d="M102.141 55.3203L94.5703 61.6484C94.2971 61.8745 93.9655 62.0184 93.6138 62.0636C93.2621 62.1088 92.9049 62.0533 92.5835 61.9036C92.262 61.754 91.9896 61.5162 91.7979 61.218C91.6061 60.9198 91.5028 60.5733 91.5 60.2188V23C91.5 22.5027 91.6975 22.0258 92.0492 21.6742C92.4008 21.3225 92.8777 21.125 93.375 21.125H134.625C135.122 21.125 135.599 21.3225 135.951 21.6742C136.302 22.0258 136.5 22.5027 136.5 23V53C136.5 53.4973 136.302 53.9742 135.951 54.3258C135.599 54.6775 135.122 54.875 134.625 54.875H103.336C102.897 54.8751 102.473 55.0332 102.141 55.3203Z" fill="none"  stroke="#fff" stroke-width="5" stroke-linecap="round" stroke-linejoin="round"/>
<path d="M114 40.8125C115.553 40.8125 116.812 39.5533 116.812 38C116.812 36.4467 115.553 35.1875 114 35.1875C112.447 35.1875 111.188 36.4467 111.188 38C111.188 39.5533 112.447 40.8125 114 40.8125Z" fill="#fff"/>
<path d="M102.75 40.8125C104.303 40.8125 105.562 39.5533 105.562 38C105.562 36.4467 104.303 35.1875 102.75 35.1875C101.197 35.1875 99.9375 36.4467 99.9375 38C99.9375 39.5533 101.197 40.8125 102.75 40.8125Z" fill="#fff"/>
<path d="M125.25 40.8125C126.803 40.8125 128.062 39.5533 128.062 38C128.062 36.4467 126.803 35.1875 125.25 35.1875C123.697 35.1875 122.438 36.4467 122.438 38C122.438 39.5533 123.697 40.8125 125.25 40.8125Z" fill="#fff"/>
<path d="M68.1328 69.7503C71.3485 76.3909 76.7183 81.7469 83.3672 84.9456C83.8576 85.1778 84.4001 85.2783 84.9412 85.2372C85.4823 85.1961 86.0034 85.0148 86.4531 84.7112L96.2188 78.1878C96.6502 77.8951 97.1488 77.7166 97.6679 77.6687C98.1871 77.6209 98.7099 77.7054 99.1875 77.9143L117.469 85.7659C118.094 86.0259 118.616 86.4842 118.954 87.07C119.293 87.6558 119.43 88.3368 119.344 89.0081C118.764 93.5305 116.557 97.6868 113.135 100.699C109.712 103.712 105.309 105.374 100.75 105.375C86.6604 105.375 73.1478 99.7782 63.185 89.8153C53.2221 79.8524 47.625 66.3399 47.625 52.2503C47.626 47.6909 49.2883 43.2881 52.3009 39.8657C55.3134 36.4433 59.4698 34.2359 63.9922 33.6565C64.6634 33.5703 65.3444 33.7071 65.9303 34.0459C66.5161 34.3847 66.9743 34.9067 67.2344 35.5315L75.0859 53.8518C75.2901 54.3219 75.3755 54.835 75.3347 55.3459C75.2938 55.8568 75.1279 56.3498 74.8516 56.7815L68.3281 66.7034C68.0377 67.1521 67.8672 67.6679 67.833 68.2013C67.7989 68.7348 67.9021 69.2681 68.1328 69.7503V69.7503Z" stroke="#fff" stroke-width="6" stroke-linecap="round" stroke-linejoin="round"/>
</svg>
