<svg xmlns="http://www.w3.org/2000/svg" viewBox="0 0 12.796 18"><defs><style>.a{fill:#fff;}</style></defs><path class="a" d="M168.438,114.467a2.829,2.829,0,1,0,2.829,2.829A2.83,2.83,0,0,0,168.438,114.467Zm0,4.392A1.562,1.562,0,1,1,170,117.3,1.566,1.566,0,0,1,168.438,118.859Z" transform="translate(-162.041 -110.202)"/><path class="a" d="M80.938,2.111A6.338,6.338,0,0,0,76.05,0c-4.075,0-6.208,3.315-6.208,6.588,0,4.286,5.859,10.906,6.113,11.191a.613.613,0,0,0,.465.222h.011a.658.658,0,0,0,.465-.211,31.5,31.5,0,0,0,2.85-3.663c1.921-2.872,2.893-5.416,2.893-7.548A6.817,6.817,0,0,0,80.938,2.111Zm-4.5,14.263c-1.372-1.647-5.321-6.64-5.321-9.8,0-2.555,1.552-5.31,4.941-5.31a5.2,5.2,0,0,1,5.31,5.31C81.37,10.293,77.749,14.843,76.44,16.374Z" transform="translate(-69.842)"/></svg>